<?xml version="1.0" encoding="utf-8"?>
<!-- Generator: Adobe Illustrator 22.1.0, SVG Export Plug-In . SVG Version: 6.00 Build 0)  -->
<svg version="1.1" baseProfile="tiny" id="Layer_1" xmlns="http://www.w3.org/2000/svg" xmlns:xlink="http://www.w3.org/1999/xlink"
	 x="0px" y="0px" width="150.7px" height="15.7px" viewBox="0 0 150.7 15.7" xml:space="preserve">
<g>
	<g>
		<path fill="#FFFFFF" d="M107.4,0L107.4,0v15.6h3.5V8.3h1.2l7,7.3h4.6l-6.9-7.2c3-0.2,5.4-2,5.4-4.2c0-2.6-3.1-4.2-6.1-4.2
			C116.3,0,107.4,0,107.4,0z M110.9,1.7h4.2c0.7,0,3.2,0.2,3.2,2.2s-2.3,3-3.9,3h-3.5L110.9,1.7L110.9,1.7z M25.7,0l-9.1,15.6h2.8
			l2.6-4.4H31l2.8,4.4h3.9L28.1,0H25.7z M26.4,3.6l3.9,6.2h-7.5L26.4,3.6L26.4,3.6z M134.5,0l-9.1,15.6h2.8l2.6-4.4h9.1l2.8,4.4h3.9
			L136.9,0H134.5z M135.2,3.6l3.9,6.2h-7.5L135.2,3.6L135.2,3.6z M0,0v15.6h15.4l-2.1-2.3H3.5V0H0z M55.4,0v11.8L45.1,0h-4.2v15.6
			h2.3V3.2l10.9,12.4H58V0H55.4z M87.8,0v15.6h15.5l-2.3-2.3h-9.9V8.5h6.8l1.2-1.9h-8V2.3h9.9l2.3-2.2L87.8,0L87.8,0z M80.7,0
			L74,11.8L66.7,0h-4.4l9.5,15.6H75L83.5,0C83.5,0,80.7,0,80.7,0z M149.2,12.8c0.8,0,1.5,0.7,1.5,1.5c0,0.8-0.7,1.5-1.5,1.5
			c-0.8,0-1.5-0.7-1.5-1.5C147.6,13.4,148.3,12.8,149.2,12.8L149.2,12.8z M149.2,13.1c-0.7,0-1.1,0.5-1.1,1.2c0,0.7,0.5,1.2,1.1,1.2
			c0.7,0,1.1-0.5,1.1-1.2C150.3,13.6,149.8,13.1,149.2,13.1L149.2,13.1z M148.9,15h-0.4v-1.5c0.1,0,0.3,0,0.6,0c0.3,0,0.4,0,0.5,0.1
			c0.1,0.1,0.2,0.2,0.2,0.3c0,0.2-0.1,0.3-0.3,0.4v0c0.1,0,0.2,0.2,0.2,0.4c0,0.2,0.1,0.3,0.1,0.4h-0.4c0-0.1-0.1-0.2-0.1-0.4
			c0-0.2-0.1-0.2-0.3-0.2h-0.2L148.9,15L148.9,15L148.9,15z M148.9,14.2h0.2c0.2,0,0.3-0.1,0.3-0.2c0-0.1-0.1-0.2-0.3-0.2
			c-0.1,0-0.2,0-0.2,0L148.9,14.2L148.9,14.2L148.9,14.2z"/>
	</g>
</g>
</svg>
